<svg width="122" height="23" viewBox="0 0 122 23" fill="none" xmlns="http://www.w3.org/2000/svg">
<path d="M11 20V8.8C11.5 8.6 12 8.3 12.3 7.9L15.8 9.2L12.9 16C12.4 18 13.9 19 16.4 19C18.9 19 20.5 18 19.9 16L17.3 9.7L18.2 10L18.9 8.1L13 6C13 4.8 12.3 3.6 11 3.1C9.8 2.6 8.5 3.1 7.7 4L1.9 2L1.2 3.8L2.8 4.4L0.0999999 11C-0.4 13 1.1 14 3.6 14C6.1 14 7.7 13 7.1 11L4.6 5.1L7 6C7 7.2 7.7 8.4 9 8.9V20H0V22H20V20H11ZM17.9 16H14.9L16.4 12.2L17.9 16ZM5.1 11H2.1L3.6 7.2L5.1 11ZM9.1 5.7C9.3 5.2 9.9 4.9 10.4 5.1C10.9 5.3 11.2 5.9 11 6.4C10.8 6.9 10.2 7.2 9.7 7C9.2 6.8 8.9 6.2 9.1 5.7Z" fill="#B69D74"/>
<path d="M34.6 4.504C34.568 4.808 34.544 5.104 34.528 5.392C34.52 5.672 34.516 5.888 34.516 6.04C34.516 6.192 34.52 6.336 34.528 6.472C34.536 6.608 34.544 6.72 34.552 6.808H34.276C34.22 6.296 34.132 5.892 34.012 5.596C33.9 5.3 33.728 5.092 33.496 4.972C33.272 4.844 32.956 4.78 32.548 4.78H31.72C31.464 4.78 31.268 4.804 31.132 4.852C31.004 4.892 30.916 4.98 30.868 5.116C30.82 5.244 30.796 5.448 30.796 5.728V11.776C30.796 12.048 30.82 12.252 30.868 12.388C30.916 12.524 31.004 12.616 31.132 12.664C31.268 12.704 31.464 12.724 31.72 12.724H32.5C32.956 12.724 33.316 12.652 33.58 12.508C33.852 12.364 34.056 12.128 34.192 11.8C34.336 11.472 34.444 11.024 34.516 10.456H34.792C34.768 10.688 34.756 10.992 34.756 11.368C34.756 11.528 34.76 11.76 34.768 12.064C34.784 12.368 34.808 12.68 34.84 13C34.432 12.984 33.972 12.976 33.46 12.976C32.948 12.968 32.492 12.964 32.092 12.964C31.908 12.964 31.672 12.964 31.384 12.964C31.096 12.964 30.784 12.968 30.448 12.976C30.12 12.976 29.784 12.98 29.44 12.988C29.104 12.988 28.78 12.992 28.468 13V12.76C28.74 12.744 28.944 12.712 29.08 12.664C29.216 12.616 29.304 12.52 29.344 12.376C29.392 12.232 29.416 12.016 29.416 11.728V5.776C29.416 5.48 29.392 5.264 29.344 5.128C29.304 4.984 29.212 4.888 29.068 4.84C28.932 4.784 28.732 4.752 28.468 4.744V4.504C28.78 4.512 29.104 4.52 29.44 4.528C29.784 4.528 30.12 4.532 30.448 4.54C30.784 4.54 31.096 4.54 31.384 4.54C31.672 4.54 31.908 4.54 32.092 4.54C32.46 4.54 32.876 4.54 33.34 4.54C33.812 4.532 34.232 4.52 34.6 4.504ZM32.608 8.608C32.608 8.608 32.608 8.648 32.608 8.728C32.608 8.808 32.608 8.848 32.608 8.848H30.436C30.436 8.848 30.436 8.808 30.436 8.728C30.436 8.648 30.436 8.608 30.436 8.608H32.608ZM32.956 7.024C32.924 7.48 32.908 7.828 32.908 8.068C32.916 8.308 32.92 8.528 32.92 8.728C32.92 8.928 32.924 9.148 32.932 9.388C32.94 9.628 32.96 9.976 32.992 10.432H32.716C32.676 10.168 32.624 9.916 32.56 9.676C32.496 9.428 32.38 9.228 32.212 9.076C32.052 8.924 31.8 8.848 31.456 8.848V8.608C31.712 8.608 31.912 8.556 32.056 8.452C32.208 8.348 32.324 8.212 32.404 8.044C32.484 7.876 32.54 7.704 32.572 7.528C32.612 7.344 32.648 7.176 32.68 7.024H32.956ZM41.3345 3.592V11.692C41.3345 12.052 41.3945 12.32 41.5145 12.496C41.6425 12.664 41.8705 12.748 42.1985 12.748V13C41.9505 12.976 41.7025 12.964 41.4545 12.964C41.1825 12.964 40.9265 12.976 40.6865 13C40.4545 13.024 40.2385 13.068 40.0385 13.132V5.032C40.0385 4.672 39.9745 4.408 39.8465 4.24C39.7265 4.064 39.5025 3.976 39.1745 3.976V3.724C39.4305 3.748 39.6785 3.76 39.9185 3.76C40.1825 3.76 40.4345 3.748 40.6745 3.724C40.9145 3.692 41.1345 3.648 41.3345 3.592ZM38.6345 6.64C38.9865 6.64 39.3065 6.716 39.5945 6.868C39.8905 7.02 40.0985 7.276 40.2185 7.636L40.0745 7.768C39.9625 7.48 39.7985 7.272 39.5825 7.144C39.3665 7.008 39.1225 6.94 38.8505 6.94C38.3945 6.94 38.0225 7.184 37.7345 7.672C37.4465 8.152 37.3065 8.896 37.3145 9.904C37.3145 10.568 37.3705 11.112 37.4825 11.536C37.5945 11.952 37.7585 12.26 37.9745 12.46C38.1985 12.66 38.4665 12.76 38.7785 12.76C39.0905 12.76 39.3705 12.628 39.6185 12.364C39.8745 12.1 40.0265 11.72 40.0745 11.224L40.1825 11.476C40.1025 12.02 39.9105 12.44 39.6065 12.736C39.3025 13.024 38.8945 13.168 38.3825 13.168C37.8945 13.168 37.4625 13.052 37.0865 12.82C36.7185 12.58 36.4345 12.22 36.2345 11.74C36.0345 11.252 35.9345 10.64 35.9345 9.904C35.9345 9.176 36.0545 8.572 36.2945 8.092C36.5425 7.604 36.8705 7.24 37.2785 7C37.6865 6.76 38.1385 6.64 38.6345 6.64ZM48.3895 6.676V11.704C48.3895 12.064 48.4495 12.332 48.5695 12.508C48.6975 12.676 48.9255 12.76 49.2535 12.76V13.012C49.0055 12.988 48.7575 12.976 48.5095 12.976C48.2455 12.976 47.9935 12.988 47.7535 13.012C47.5135 13.036 47.2935 13.08 47.0935 13.144V11.836C46.8935 12.316 46.6135 12.66 46.2535 12.868C45.9015 13.068 45.5295 13.168 45.1375 13.168C44.8415 13.168 44.5895 13.124 44.3815 13.036C44.1735 12.956 44.0015 12.848 43.8655 12.712C43.7215 12.552 43.6215 12.348 43.5655 12.1C43.5095 11.844 43.4815 11.524 43.4815 11.14V8.116C43.4815 7.756 43.4215 7.492 43.3015 7.324C43.1815 7.148 42.9535 7.06 42.6175 7.06V6.808C42.8735 6.832 43.1215 6.844 43.3615 6.844C43.6255 6.844 43.8775 6.832 44.1175 6.808C44.3575 6.776 44.5775 6.732 44.7775 6.676V11.476C44.7775 11.708 44.7935 11.92 44.8255 12.112C44.8575 12.304 44.9335 12.456 45.0535 12.568C45.1735 12.68 45.3655 12.736 45.6295 12.736C45.9095 12.736 46.1575 12.652 46.3735 12.484C46.5975 12.316 46.7735 12.088 46.9015 11.8C47.0295 11.512 47.0935 11.188 47.0935 10.828V8.116C47.0935 7.756 47.0335 7.492 46.9135 7.324C46.7935 7.148 46.5655 7.06 46.2295 7.06V6.808C46.4855 6.832 46.7335 6.844 46.9735 6.844C47.2375 6.844 47.4895 6.832 47.7295 6.808C47.9695 6.776 48.1895 6.732 48.3895 6.676ZM51.5199 13.084C51.1839 13.084 50.8959 13.02 50.6559 12.892C50.4159 12.764 50.2359 12.588 50.1159 12.364C49.9959 12.14 49.9359 11.884 49.9359 11.596C49.9359 11.244 50.0159 10.96 50.1759 10.744C50.3359 10.52 50.5399 10.34 50.7879 10.204C51.0439 10.068 51.3119 9.956 51.5919 9.868C51.8799 9.772 52.1479 9.684 52.3959 9.604C52.6519 9.516 52.8599 9.416 53.0199 9.304C53.1879 9.192 53.2719 9.044 53.2719 8.86V8.044C53.2719 7.756 53.2239 7.528 53.1279 7.36C53.0399 7.184 52.9159 7.06 52.7559 6.988C52.6039 6.916 52.4199 6.88 52.2039 6.88C52.0199 6.88 51.8239 6.908 51.6159 6.964C51.4079 7.012 51.2439 7.112 51.1239 7.264C51.2999 7.312 51.4439 7.408 51.5559 7.552C51.6759 7.688 51.7359 7.86 51.7359 8.068C51.7359 8.292 51.6599 8.468 51.5079 8.596C51.3639 8.724 51.1799 8.788 50.9559 8.788C50.7079 8.788 50.5239 8.712 50.4039 8.56C50.2839 8.4 50.2239 8.216 50.2239 8.008C50.2239 7.792 50.2759 7.616 50.3799 7.48C50.4919 7.344 50.6359 7.216 50.8119 7.096C51.0039 6.968 51.2479 6.86 51.5439 6.772C51.8479 6.684 52.1839 6.64 52.5519 6.64C52.8959 6.64 53.1919 6.68 53.4399 6.76C53.6959 6.832 53.9079 6.952 54.0759 7.12C54.2759 7.304 54.4079 7.536 54.4719 7.816C54.5359 8.088 54.5679 8.42 54.5679 8.812V12.124C54.5679 12.324 54.5919 12.468 54.6399 12.556C54.6959 12.636 54.7839 12.676 54.9039 12.676C54.9839 12.676 55.0599 12.656 55.1319 12.616C55.2119 12.576 55.3039 12.516 55.4079 12.436L55.5279 12.64C55.3599 12.776 55.1879 12.884 55.0119 12.964C54.8439 13.044 54.6279 13.084 54.3639 13.084C54.1079 13.084 53.8999 13.044 53.7399 12.964C53.5799 12.884 53.4599 12.768 53.3799 12.616C53.3079 12.464 53.2719 12.276 53.2719 12.052C53.0639 12.388 52.8159 12.644 52.5279 12.82C52.2399 12.996 51.9039 13.084 51.5199 13.084ZM52.0959 12.508C52.3199 12.508 52.5279 12.444 52.7199 12.316C52.9199 12.188 53.1039 11.996 53.2719 11.74V9.352C53.1839 9.48 53.0559 9.592 52.8879 9.688C52.7199 9.776 52.5399 9.868 52.3479 9.964C52.1559 10.06 51.9719 10.172 51.7959 10.3C51.6279 10.42 51.4879 10.576 51.3759 10.768C51.2639 10.96 51.2079 11.204 51.2079 11.5C51.2079 11.812 51.2879 12.06 51.4479 12.244C51.6079 12.42 51.8239 12.508 52.0959 12.508ZM59.7505 6.64C59.9825 6.64 60.1785 6.688 60.3385 6.784C60.5065 6.88 60.6305 7.004 60.7105 7.156C60.7985 7.3 60.8425 7.464 60.8425 7.648C60.8425 7.88 60.7705 8.08 60.6265 8.248C60.4905 8.408 60.3065 8.488 60.0745 8.488C59.8745 8.488 59.7025 8.428 59.5585 8.308C59.4225 8.188 59.3545 8.024 59.3545 7.816C59.3545 7.64 59.3985 7.492 59.4865 7.372C59.5825 7.244 59.6905 7.144 59.8105 7.072C59.7305 7.008 59.6345 6.98 59.5225 6.988C59.3065 6.996 59.1065 7.068 58.9225 7.204C58.7385 7.332 58.5825 7.5 58.4545 7.708C58.3265 7.908 58.2265 8.124 58.1545 8.356C58.0825 8.588 58.0465 8.804 58.0465 9.004V11.764C58.0465 12.156 58.1545 12.42 58.3705 12.556C58.5865 12.684 58.8865 12.748 59.2705 12.748V13C59.0865 12.992 58.8225 12.984 58.4785 12.976C58.1425 12.96 57.7865 12.952 57.4105 12.952C57.1225 12.952 56.8345 12.96 56.5465 12.976C56.2585 12.984 56.0385 12.992 55.8865 13V12.748C56.1985 12.748 56.4185 12.688 56.5465 12.568C56.6825 12.448 56.7505 12.22 56.7505 11.884V8.116C56.7505 7.756 56.6905 7.492 56.5705 7.324C56.4505 7.148 56.2225 7.06 55.8865 7.06V6.808C56.1425 6.832 56.3905 6.844 56.6305 6.844C56.9025 6.844 57.1545 6.832 57.3865 6.808C57.6265 6.776 57.8465 6.732 58.0465 6.676V8.056C58.1425 7.824 58.2705 7.6 58.4305 7.384C58.5905 7.168 58.7825 6.992 59.0065 6.856C59.2305 6.712 59.4785 6.64 59.7505 6.64ZM66.7173 3.592V11.692C66.7173 12.052 66.7773 12.32 66.8973 12.496C67.0253 12.664 67.2533 12.748 67.5813 12.748V13C67.3333 12.976 67.0853 12.964 66.8373 12.964C66.5653 12.964 66.3093 12.976 66.0693 13C65.8373 13.024 65.6213 13.068 65.4213 13.132V5.032C65.4213 4.672 65.3573 4.408 65.2293 4.24C65.1093 4.064 64.8853 3.976 64.5573 3.976V3.724C64.8133 3.748 65.0613 3.76 65.3013 3.76C65.5653 3.76 65.8173 3.748 66.0573 3.724C66.2973 3.692 66.5173 3.648 66.7173 3.592ZM64.0173 6.64C64.3693 6.64 64.6893 6.716 64.9773 6.868C65.2733 7.02 65.4813 7.276 65.6013 7.636L65.4573 7.768C65.3453 7.48 65.1813 7.272 64.9653 7.144C64.7493 7.008 64.5053 6.94 64.2333 6.94C63.7773 6.94 63.4053 7.184 63.1173 7.672C62.8293 8.152 62.6893 8.896 62.6973 9.904C62.6973 10.568 62.7533 11.112 62.8653 11.536C62.9773 11.952 63.1413 12.26 63.3573 12.46C63.5813 12.66 63.8493 12.76 64.1613 12.76C64.4733 12.76 64.7533 12.628 65.0013 12.364C65.2573 12.1 65.4093 11.72 65.4573 11.224L65.5653 11.476C65.4853 12.02 65.2933 12.44 64.9893 12.736C64.6853 13.024 64.2773 13.168 63.7653 13.168C63.2773 13.168 62.8453 13.052 62.4693 12.82C62.1013 12.58 61.8173 12.22 61.6173 11.74C61.4173 11.252 61.3173 10.64 61.3173 9.904C61.3173 9.176 61.4373 8.572 61.6773 8.092C61.9253 7.604 62.2533 7.24 62.6613 7C63.0693 6.76 63.5213 6.64 64.0173 6.64ZM71.1443 6.64C71.6803 6.64 72.1563 6.752 72.5723 6.976C72.9883 7.2 73.3203 7.552 73.5683 8.032C73.8163 8.512 73.9403 9.14 73.9403 9.916C73.9403 10.692 73.8163 11.32 73.5683 11.8C73.3203 12.272 72.9883 12.62 72.5723 12.844C72.1563 13.06 71.6803 13.168 71.1443 13.168C70.6163 13.168 70.1403 13.06 69.7163 12.844C69.2923 12.62 68.9563 12.272 68.7083 11.8C68.4683 11.32 68.3483 10.692 68.3483 9.916C68.3483 9.14 68.4683 8.512 68.7083 8.032C68.9563 7.552 69.2923 7.2 69.7163 6.976C70.1403 6.752 70.6163 6.64 71.1443 6.64ZM71.1443 6.88C70.7283 6.88 70.3883 7.12 70.1243 7.6C69.8603 8.072 69.7283 8.844 69.7283 9.916C69.7283 10.988 69.8603 11.76 70.1243 12.232C70.3883 12.696 70.7283 12.928 71.1443 12.928C71.5523 12.928 71.8883 12.696 72.1523 12.232C72.4243 11.76 72.5603 10.988 72.5603 9.916C72.5603 8.844 72.4243 8.072 72.1523 7.6C71.8883 7.12 71.5523 6.88 71.1443 6.88ZM87.6065 4.504V4.744C87.3345 4.752 87.1305 4.784 86.9945 4.84C86.8585 4.888 86.7665 4.984 86.7185 5.128C86.6785 5.264 86.6585 5.48 86.6585 5.776V11.728C86.6585 12.016 86.6785 12.232 86.7185 12.376C86.7665 12.52 86.8585 12.616 86.9945 12.664C87.1305 12.712 87.3345 12.744 87.6065 12.76V13C87.4065 12.984 87.1585 12.976 86.8625 12.976C86.5665 12.968 86.2665 12.964 85.9625 12.964C85.6265 12.964 85.3105 12.968 85.0145 12.976C84.7185 12.976 84.4825 12.984 84.3065 13V12.76C84.5785 12.744 84.7825 12.712 84.9185 12.664C85.0625 12.616 85.1585 12.52 85.2065 12.376C85.2545 12.232 85.2785 12.016 85.2785 11.728V5.164L85.3385 5.188L82.3865 13.048H82.1945L79.0985 5.272V11.416C79.0985 11.752 79.1225 12.016 79.1705 12.208C79.2185 12.392 79.3225 12.524 79.4825 12.604C79.6425 12.684 79.8865 12.736 80.2145 12.76V13C80.0625 12.984 79.8665 12.976 79.6265 12.976C79.3945 12.968 79.1745 12.964 78.9665 12.964C78.7665 12.964 78.5665 12.968 78.3665 12.976C78.1665 12.976 78.0025 12.984 77.8745 13V12.76C78.1385 12.736 78.3385 12.688 78.4745 12.616C78.6105 12.536 78.7025 12.404 78.7505 12.22C78.7985 12.036 78.8225 11.784 78.8225 11.464V5.776C78.8225 5.48 78.7985 5.264 78.7505 5.128C78.7025 4.984 78.6105 4.888 78.4745 4.84C78.3385 4.784 78.1385 4.752 77.8745 4.744V4.504C78.0025 4.512 78.1665 4.52 78.3665 4.528C78.5665 4.536 78.7665 4.54 78.9665 4.54C79.1985 4.54 79.4305 4.536 79.6625 4.528C79.9025 4.52 80.1065 4.512 80.2745 4.504L82.9265 11.32L82.6985 11.476L85.3025 4.54C85.4065 4.54 85.5145 4.54 85.6265 4.54C85.7385 4.54 85.8505 4.54 85.9625 4.54C86.2665 4.54 86.5665 4.536 86.8625 4.528C87.1585 4.52 87.4065 4.512 87.6065 4.504ZM90.0277 13.084C89.6917 13.084 89.4037 13.02 89.1637 12.892C88.9237 12.764 88.7437 12.588 88.6237 12.364C88.5037 12.14 88.4437 11.884 88.4437 11.596C88.4437 11.244 88.5237 10.96 88.6837 10.744C88.8437 10.52 89.0477 10.34 89.2957 10.204C89.5517 10.068 89.8197 9.956 90.0997 9.868C90.3877 9.772 90.6557 9.684 90.9037 9.604C91.1597 9.516 91.3677 9.416 91.5277 9.304C91.6957 9.192 91.7797 9.044 91.7797 8.86V8.044C91.7797 7.756 91.7317 7.528 91.6357 7.36C91.5477 7.184 91.4237 7.06 91.2637 6.988C91.1117 6.916 90.9277 6.88 90.7117 6.88C90.5277 6.88 90.3317 6.908 90.1237 6.964C89.9157 7.012 89.7517 7.112 89.6317 7.264C89.8077 7.312 89.9517 7.408 90.0637 7.552C90.1837 7.688 90.2437 7.86 90.2437 8.068C90.2437 8.292 90.1677 8.468 90.0157 8.596C89.8717 8.724 89.6877 8.788 89.4637 8.788C89.2157 8.788 89.0317 8.712 88.9117 8.56C88.7917 8.4 88.7317 8.216 88.7317 8.008C88.7317 7.792 88.7837 7.616 88.8877 7.48C88.9997 7.344 89.1437 7.216 89.3197 7.096C89.5117 6.968 89.7557 6.86 90.0517 6.772C90.3557 6.684 90.6917 6.64 91.0597 6.64C91.4037 6.64 91.6997 6.68 91.9477 6.76C92.2037 6.832 92.4157 6.952 92.5837 7.12C92.7837 7.304 92.9157 7.536 92.9797 7.816C93.0437 8.088 93.0757 8.42 93.0757 8.812V12.124C93.0757 12.324 93.0997 12.468 93.1477 12.556C93.2037 12.636 93.2917 12.676 93.4117 12.676C93.4917 12.676 93.5677 12.656 93.6397 12.616C93.7197 12.576 93.8117 12.516 93.9157 12.436L94.0357 12.64C93.8677 12.776 93.6957 12.884 93.5197 12.964C93.3517 13.044 93.1357 13.084 92.8717 13.084C92.6157 13.084 92.4077 13.044 92.2477 12.964C92.0877 12.884 91.9677 12.768 91.8877 12.616C91.8157 12.464 91.7797 12.276 91.7797 12.052C91.5717 12.388 91.3237 12.644 91.0357 12.82C90.7477 12.996 90.4117 13.084 90.0277 13.084ZM90.6037 12.508C90.8277 12.508 91.0357 12.444 91.2277 12.316C91.4277 12.188 91.6117 11.996 91.7797 11.74V9.352C91.6917 9.48 91.5637 9.592 91.3957 9.688C91.2277 9.776 91.0477 9.868 90.8557 9.964C90.6637 10.06 90.4797 10.172 90.3037 10.3C90.1357 10.42 89.9957 10.576 89.8837 10.768C89.7717 10.96 89.7157 11.204 89.7157 11.5C89.7157 11.812 89.7957 12.06 89.9557 12.244C90.1157 12.42 90.3317 12.508 90.6037 12.508ZM98.2583 6.64C98.4903 6.64 98.6863 6.688 98.8463 6.784C99.0143 6.88 99.1383 7.004 99.2183 7.156C99.3063 7.3 99.3503 7.464 99.3503 7.648C99.3503 7.88 99.2783 8.08 99.1343 8.248C98.9983 8.408 98.8143 8.488 98.5823 8.488C98.3823 8.488 98.2103 8.428 98.0663 8.308C97.9303 8.188 97.8623 8.024 97.8623 7.816C97.8623 7.64 97.9063 7.492 97.9943 7.372C98.0903 7.244 98.1983 7.144 98.3183 7.072C98.2383 7.008 98.1423 6.98 98.0303 6.988C97.8143 6.996 97.6143 7.068 97.4303 7.204C97.2463 7.332 97.0903 7.5 96.9623 7.708C96.8343 7.908 96.7343 8.124 96.6623 8.356C96.5903 8.588 96.5543 8.804 96.5543 9.004V11.764C96.5543 12.156 96.6623 12.42 96.8783 12.556C97.0943 12.684 97.3943 12.748 97.7783 12.748V13C97.5943 12.992 97.3303 12.984 96.9863 12.976C96.6503 12.96 96.2943 12.952 95.9183 12.952C95.6303 12.952 95.3423 12.96 95.0543 12.976C94.7663 12.984 94.5463 12.992 94.3943 13V12.748C94.7063 12.748 94.9263 12.688 95.0543 12.568C95.1903 12.448 95.2583 12.22 95.2583 11.884V8.116C95.2583 7.756 95.1983 7.492 95.0783 7.324C94.9583 7.148 94.7303 7.06 94.3943 7.06V6.808C94.6503 6.832 94.8983 6.844 95.1383 6.844C95.4103 6.844 95.6623 6.832 95.8943 6.808C96.1343 6.776 96.3543 6.732 96.5543 6.676V8.056C96.6503 7.824 96.7783 7.6 96.9383 7.384C97.0983 7.168 97.2903 6.992 97.5143 6.856C97.7383 6.712 97.9863 6.64 98.2583 6.64ZM101.92 4.828V6.82H103.576V7.06H101.92V11.776C101.92 12.104 101.98 12.336 102.1 12.472C102.22 12.608 102.392 12.676 102.616 12.676C102.824 12.676 103.008 12.592 103.168 12.424C103.336 12.256 103.48 11.972 103.6 11.572L103.828 11.656C103.732 12.08 103.56 12.44 103.312 12.736C103.072 13.024 102.716 13.168 102.244 13.168C101.972 13.168 101.744 13.132 101.56 13.06C101.376 12.996 101.216 12.9 101.08 12.772C100.904 12.588 100.784 12.368 100.72 12.112C100.656 11.856 100.624 11.516 100.624 11.092V7.06H99.5201V6.82H100.624V5.068C100.872 5.06 101.104 5.04 101.32 5.008C101.536 4.968 101.736 4.908 101.92 4.828ZM105.491 3.784C105.739 3.784 105.947 3.864 106.115 4.024C106.283 4.176 106.367 4.368 106.367 4.6C106.367 4.832 106.283 5.028 106.115 5.188C105.947 5.34 105.739 5.416 105.491 5.416C105.243 5.416 105.035 5.34 104.867 5.188C104.699 5.028 104.615 4.832 104.615 4.6C104.615 4.368 104.699 4.176 104.867 4.024C105.035 3.864 105.243 3.784 105.491 3.784ZM106.211 6.676V11.884C106.211 12.22 106.275 12.448 106.403 12.568C106.539 12.688 106.763 12.748 107.075 12.748V13C106.939 12.992 106.727 12.984 106.439 12.976C106.159 12.96 105.871 12.952 105.575 12.952C105.295 12.952 105.007 12.96 104.711 12.976C104.415 12.984 104.195 12.992 104.051 13V12.748C104.363 12.748 104.583 12.688 104.711 12.568C104.847 12.448 104.915 12.22 104.915 11.884V8.116C104.915 7.756 104.855 7.492 104.735 7.324C104.615 7.148 104.387 7.06 104.051 7.06V6.808C104.307 6.832 104.555 6.844 104.795 6.844C105.067 6.844 105.319 6.832 105.551 6.808C105.791 6.776 106.011 6.732 106.211 6.676ZM111.824 6.64C112.144 6.64 112.404 6.684 112.604 6.772C112.812 6.852 112.984 6.964 113.12 7.108C113.264 7.26 113.364 7.456 113.42 7.696C113.484 7.936 113.516 8.26 113.516 8.668V11.884C113.516 12.22 113.58 12.448 113.708 12.568C113.844 12.688 114.068 12.748 114.38 12.748V13C114.244 12.992 114.032 12.984 113.744 12.976C113.456 12.96 113.172 12.952 112.892 12.952C112.62 12.952 112.348 12.96 112.076 12.976C111.812 12.984 111.612 12.992 111.476 13V12.748C111.748 12.748 111.94 12.688 112.052 12.568C112.164 12.448 112.22 12.22 112.22 11.884V8.332C112.22 8.1 112.2 7.892 112.16 7.708C112.12 7.516 112.036 7.364 111.908 7.252C111.78 7.132 111.588 7.072 111.332 7.072C111.036 7.072 110.772 7.156 110.54 7.324C110.316 7.492 110.136 7.724 110 8.02C109.872 8.308 109.808 8.632 109.808 8.992V11.884C109.808 12.22 109.864 12.448 109.976 12.568C110.096 12.688 110.288 12.748 110.552 12.748V13C110.424 12.992 110.228 12.984 109.964 12.976C109.708 12.96 109.44 12.952 109.16 12.952C108.888 12.952 108.604 12.96 108.308 12.976C108.012 12.984 107.792 12.992 107.648 13V12.748C107.96 12.748 108.18 12.688 108.308 12.568C108.444 12.448 108.512 12.22 108.512 11.884V8.116C108.512 7.756 108.452 7.492 108.332 7.324C108.212 7.148 107.984 7.06 107.648 7.06V6.808C107.904 6.832 108.152 6.844 108.392 6.844C108.664 6.844 108.916 6.832 109.148 6.808C109.388 6.776 109.608 6.732 109.808 6.676V7.984C110.016 7.488 110.3 7.14 110.66 6.94C111.028 6.74 111.416 6.64 111.824 6.64ZM117.111 6.64C117.431 6.64 117.707 6.692 117.939 6.796C118.179 6.892 118.351 6.98 118.455 7.06C118.719 7.268 118.883 7.132 118.947 6.652H119.211C119.195 6.876 119.183 7.148 119.175 7.468C119.167 7.78 119.163 8.196 119.163 8.716H118.899C118.851 8.42 118.767 8.132 118.647 7.852C118.535 7.572 118.367 7.34 118.143 7.156C117.927 6.972 117.643 6.88 117.291 6.88C117.027 6.88 116.807 6.956 116.631 7.108C116.455 7.252 116.367 7.468 116.367 7.756C116.367 7.996 116.439 8.204 116.583 8.38C116.727 8.556 116.911 8.72 117.135 8.872C117.367 9.024 117.615 9.188 117.879 9.364C118.175 9.564 118.439 9.764 118.671 9.964C118.911 10.156 119.099 10.372 119.235 10.612C119.379 10.852 119.451 11.132 119.451 11.452C119.451 11.82 119.351 12.132 119.151 12.388C118.959 12.644 118.703 12.84 118.383 12.976C118.063 13.104 117.711 13.168 117.327 13.168C117.135 13.168 116.955 13.148 116.787 13.108C116.619 13.076 116.463 13.032 116.319 12.976C116.231 12.928 116.143 12.88 116.055 12.832C115.975 12.776 115.895 12.724 115.815 12.676C115.735 12.62 115.663 12.628 115.599 12.7C115.535 12.772 115.487 12.9 115.455 13.084H115.191C115.207 12.828 115.219 12.516 115.227 12.148C115.235 11.78 115.239 11.292 115.239 10.684H115.503C115.559 11.124 115.643 11.512 115.755 11.848C115.867 12.184 116.031 12.448 116.247 12.64C116.471 12.824 116.775 12.916 117.159 12.916C117.311 12.916 117.463 12.884 117.615 12.82C117.767 12.748 117.891 12.636 117.987 12.484C118.091 12.332 118.143 12.128 118.143 11.872C118.143 11.52 118.019 11.232 117.771 11.008C117.531 10.776 117.219 10.532 116.835 10.276C116.563 10.084 116.303 9.896 116.055 9.712C115.815 9.52 115.619 9.308 115.467 9.076C115.315 8.836 115.239 8.552 115.239 8.224C115.239 7.864 115.323 7.568 115.491 7.336C115.667 7.104 115.899 6.932 116.187 6.82C116.475 6.7 116.783 6.64 117.111 6.64Z" fill="white"/>
<path d="M30.6807 21L30.3315 20.0088H28.9668L28.6177 21H28L29.3281 17.416H29.9775L31.3032 21H30.6807ZM30.1802 19.5059L29.8408 18.5293C29.8278 18.487 29.8091 18.4276 29.7847 18.3511C29.7603 18.2729 29.7358 18.194 29.7114 18.1143C29.687 18.0329 29.6667 17.9645 29.6504 17.9092C29.6341 17.9759 29.6138 18.0508 29.5894 18.1338C29.5666 18.2152 29.5438 18.2917 29.521 18.3633C29.4998 18.4349 29.4836 18.4902 29.4722 18.5293L29.1304 19.5059H30.1802ZM35.6724 19.1812C35.6724 19.5832 35.5975 19.9193 35.4478 20.1895C35.298 20.458 35.0807 20.6606 34.7959 20.7974C34.5111 20.9325 34.1676 21 33.7656 21H32.7744V17.4307H33.873C34.2425 17.4307 34.5615 17.4974 34.8301 17.6309C35.0986 17.7627 35.3062 17.9588 35.4526 18.2192C35.5991 18.478 35.6724 18.7987 35.6724 19.1812ZM35.062 19.1982C35.062 18.9053 35.0156 18.6644 34.9229 18.4756C34.8317 18.2868 34.6966 18.1468 34.5176 18.0557C34.3402 17.9629 34.1213 17.9165 33.8608 17.9165H33.3604V20.5093H33.7754C34.2067 20.5093 34.529 20.3994 34.7422 20.1797C34.9554 19.96 35.062 19.6328 35.062 19.1982ZM40.0879 17.4307L38.8403 21H38.2202L36.9727 17.4307H37.5732L38.3252 19.667C38.348 19.7321 38.3724 19.811 38.3984 19.9038C38.4261 19.9966 38.4513 20.0902 38.4741 20.1846C38.4985 20.279 38.5173 20.3628 38.5303 20.436C38.5433 20.3628 38.5612 20.279 38.584 20.1846C38.6084 20.0902 38.6336 19.9966 38.6597 19.9038C38.6857 19.811 38.7101 19.7313 38.7329 19.6646L39.4873 17.4307H40.0879ZM44.7256 19.2104C44.7256 19.4855 44.6906 19.7362 44.6206 19.9624C44.5522 20.187 44.4489 20.3807 44.3105 20.5435C44.1722 20.7046 43.9989 20.8291 43.7905 20.917C43.5822 21.0049 43.3381 21.0488 43.0581 21.0488C42.7733 21.0488 42.5259 21.0049 42.3159 20.917C42.1076 20.8291 41.9342 20.7038 41.7959 20.541C41.6592 20.3783 41.5566 20.1838 41.4883 19.9575C41.4199 19.7313 41.3857 19.4806 41.3857 19.2056C41.3857 18.8377 41.446 18.5171 41.5664 18.2437C41.6885 17.9686 41.8732 17.7554 42.1206 17.604C42.3696 17.451 42.6838 17.3745 43.063 17.3745C43.4341 17.3745 43.7425 17.4502 43.9883 17.6016C44.234 17.7529 44.418 17.9661 44.54 18.2412C44.6637 18.5146 44.7256 18.8377 44.7256 19.2104ZM42.001 19.2104C42.001 19.4855 42.0384 19.724 42.1133 19.9258C42.1882 20.126 42.3029 20.2806 42.4575 20.3896C42.6138 20.4971 42.814 20.5508 43.0581 20.5508C43.3039 20.5508 43.5041 20.4971 43.6587 20.3896C43.8133 20.2806 43.9272 20.126 44.0005 19.9258C44.0737 19.724 44.1104 19.4855 44.1104 19.2104C44.1104 18.7922 44.0265 18.465 43.8589 18.229C43.6929 17.9914 43.4276 17.8726 43.063 17.8726C42.8188 17.8726 42.6178 17.9263 42.46 18.0337C42.3037 18.1411 42.1882 18.2949 42.1133 18.4951C42.0384 18.6937 42.001 18.9321 42.001 19.2104ZM47.9326 19.0615H49.2656V20.8535C49.0785 20.9154 48.8848 20.9634 48.6846 20.9976C48.4844 21.0317 48.2598 21.0488 48.0107 21.0488C47.6478 21.0488 47.3402 20.9772 47.0879 20.834C46.8372 20.6891 46.6468 20.48 46.5166 20.2065C46.3864 19.9315 46.3213 19.6003 46.3213 19.2129C46.3213 18.8402 46.3937 18.5171 46.5386 18.2437C46.6834 17.9686 46.8942 17.7562 47.1709 17.6064C47.4476 17.4551 47.7829 17.3794 48.1768 17.3794C48.3704 17.3794 48.5576 17.3989 48.7383 17.438C48.9206 17.4754 49.0874 17.5275 49.2388 17.5942L49.0337 18.0776C48.9132 18.0207 48.7782 17.9727 48.6284 17.9336C48.4787 17.8945 48.3232 17.875 48.1621 17.875C47.9066 17.875 47.686 17.9303 47.5005 18.041C47.3166 18.1517 47.175 18.3079 47.0757 18.5098C46.9764 18.71 46.9268 18.9468 46.9268 19.2202C46.9268 19.4855 46.9666 19.7183 47.0464 19.9185C47.1261 20.1187 47.2507 20.2749 47.4199 20.3872C47.5908 20.4979 47.8114 20.5532 48.0815 20.5532C48.2166 20.5532 48.3314 20.5459 48.4258 20.5312C48.5202 20.5166 48.6073 20.5003 48.687 20.4824V19.562H47.9326V19.0615ZM53.332 21L52.9829 20.0088H51.6182L51.269 21H50.6514L51.9795 17.416H52.6289L53.9546 21H53.332ZM52.8315 19.5059L52.4922 18.5293C52.4792 18.487 52.4604 18.4276 52.436 18.3511C52.4116 18.2729 52.3872 18.194 52.3628 18.1143C52.3384 18.0329 52.318 17.9645 52.3018 17.9092C52.2855 17.9759 52.2651 18.0508 52.2407 18.1338C52.2179 18.2152 52.1951 18.2917 52.1724 18.3633C52.1512 18.4349 52.1349 18.4902 52.1235 18.5293L51.7817 19.5059H52.8315ZM58.3237 19.1812C58.3237 19.5832 58.2489 19.9193 58.0991 20.1895C57.9494 20.458 57.7321 20.6606 57.4473 20.7974C57.1624 20.9325 56.819 21 56.417 21H55.4258V17.4307H56.5244C56.8939 17.4307 57.2129 17.4974 57.4814 17.6309C57.75 17.7627 57.9575 17.9588 58.104 18.2192C58.2505 18.478 58.3237 18.7987 58.3237 19.1812ZM57.7134 19.1982C57.7134 18.9053 57.667 18.6644 57.5742 18.4756C57.4831 18.2868 57.348 18.1468 57.1689 18.0557C56.9915 17.9629 56.7726 17.9165 56.5122 17.9165H56.0117V20.5093H56.4268C56.8581 20.5093 57.1803 20.3994 57.3936 20.1797C57.6068 19.96 57.7134 19.6328 57.7134 19.1982ZM63.2617 19.2104C63.2617 19.4855 63.2267 19.7362 63.1567 19.9624C63.0884 20.187 62.985 20.3807 62.8467 20.5435C62.7083 20.7046 62.535 20.8291 62.3267 20.917C62.1183 21.0049 61.8742 21.0488 61.5942 21.0488C61.3094 21.0488 61.062 21.0049 60.8521 20.917C60.6437 20.8291 60.4704 20.7038 60.332 20.541C60.1953 20.3783 60.0928 20.1838 60.0244 19.9575C59.9561 19.7313 59.9219 19.4806 59.9219 19.2056C59.9219 18.8377 59.9821 18.5171 60.1025 18.2437C60.2246 17.9686 60.4093 17.7554 60.6567 17.604C60.9058 17.451 61.2199 17.3745 61.5991 17.3745C61.9702 17.3745 62.2786 17.4502 62.5244 17.6016C62.7702 17.7529 62.9541 17.9661 63.0762 18.2412C63.1999 18.5146 63.2617 18.8377 63.2617 19.2104ZM60.5371 19.2104C60.5371 19.4855 60.5745 19.724 60.6494 19.9258C60.7243 20.126 60.839 20.2806 60.9937 20.3896C61.1499 20.4971 61.3501 20.5508 61.5942 20.5508C61.84 20.5508 62.0402 20.4971 62.1948 20.3896C62.3494 20.2806 62.4634 20.126 62.5366 19.9258C62.6099 19.724 62.6465 19.4855 62.6465 19.2104C62.6465 18.7922 62.5627 18.465 62.395 18.229C62.229 17.9914 61.9637 17.8726 61.5991 17.8726C61.355 17.8726 61.154 17.9263 60.9961 18.0337C60.8398 18.1411 60.7243 18.2949 60.6494 18.4951C60.5745 18.6937 60.5371 18.9321 60.5371 19.2104Z" fill="#B69D74"/>
</svg>
