<svg width="263" height="40" viewBox="0 0 263 40" fill="none" xmlns="http://www.w3.org/2000/svg">
<path d="M0 7.11117C0 3.18378 3.18377 0 7.11116 0H44.4448V32.8891C44.4448 36.8165 41.261 40.0003 37.3336 40.0003H0V7.11117Z" fill="white"/>
<path d="M20.6508 13.3335H8.56182C8.07826 13.3335 7.11115 13.6192 7.11115 14.7621C7.11115 15.9049 8.07826 16.1907 8.56182 16.1907H18.9583L20.1672 18.5716H13.881C13.3974 18.5716 12.4303 18.8573 12.4303 20.0002C12.4303 21.1431 13.3974 21.4288 13.881 21.4288H21.3761L24.0357 26.6669H25.2446H26.4535L31.58 16.1907H36.1247C36.5276 16.1907 37.3336 15.9049 37.3336 14.7621C37.3336 13.6192 36.5276 13.3335 36.1247 13.3335H29.8384L25.2446 22.8574L20.6508 13.3335Z" fill="#212028"/>
<path d="M20.6508 26.6669V23.8098H8.56182C8.07826 23.8098 7.11115 24.0955 7.11115 25.2383C7.11115 26.3812 8.07826 26.6669 8.56182 26.6669H20.6508Z" fill="#212028"/>
<path d="M56.4671 27.5L59.556 13.0555H69.045L68.5116 15.4999H61.6893L60.9782 18.9222H66.7116L66.2005 21.3666H60.4449L59.6671 25.0555H66.4894L65.956 27.5H56.4671ZM69.7356 27.5L72.0023 16.9221H74.0245L73.9801 18.3666C75.1801 17.2259 76.5504 16.6555 78.0912 16.6555C79.2319 16.6555 80.1653 16.974 80.8912 17.611L79.5134 19.6777C79.0245 19.2777 78.4319 19.0777 77.7356 19.0777C76.3875 19.0777 75.0393 19.7592 73.6912 21.1222L72.3578 27.5H69.7356ZM85.3374 27.5L87.093 19.2777H83.0041L83.5152 16.9221H90.2264L88.4708 25.1444H92.5597L92.0486 27.5H85.3374ZM89.3819 15.011C88.8782 15.011 88.4708 14.8555 88.1597 14.5444C87.8486 14.2332 87.693 13.8481 87.693 13.3888C87.693 12.8406 87.8708 12.3814 88.2263 12.011C88.5967 11.6406 89.0338 11.4554 89.5375 11.4554C90.0412 11.4554 90.4486 11.611 90.7597 11.9221C91.0708 12.2184 91.2264 12.6036 91.2264 13.0777C91.2264 13.6258 91.0486 14.0851 90.693 14.4555C90.3375 14.8258 89.9004 15.011 89.3819 15.011ZM94.8948 27.5L98.2504 11.7221H100.873L98.8282 21.3L104.073 16.9221H107.65L102.273 21.2777L105.45 27.5H102.45L100.161 22.9666L98.1393 24.6111L97.517 27.5H94.8948ZM123.965 27.5L122.476 13.0555H125.165L126.143 23.5L131.565 13.0555H134.343L126.721 27.5H123.965ZM137.389 27.7667C136.219 27.7667 135.3 27.5 134.634 26.9667C133.982 26.4185 133.656 25.6704 133.656 24.7222C133.656 22.337 135.13 21.1444 138.078 21.1444H141.678L141.723 20.9222C141.752 20.774 141.774 20.6333 141.789 20.4999C141.804 20.3666 141.811 20.2481 141.811 20.1444C141.811 19.6851 141.663 19.3592 141.367 19.1666C141.086 18.974 140.597 18.8777 139.9 18.8777C138.7 18.8777 137.463 19.174 136.189 19.7666L135.434 17.7444C136.96 17.0184 138.611 16.6555 140.389 16.6555C143.13 16.6555 144.5 17.6481 144.5 19.6333C144.5 19.8259 144.486 20.0259 144.456 20.2333C144.426 20.4407 144.389 20.6629 144.345 20.9L142.945 27.5H141.011L140.989 26.6555C140.352 27.0259 139.752 27.3074 139.189 27.5C138.626 27.6778 138.026 27.7667 137.389 27.7667ZM138.078 25.5444C138.611 25.5444 139.115 25.4778 139.589 25.3444C140.063 25.1963 140.508 25.0037 140.923 24.7666L141.256 23.1222H138.1C136.9 23.1222 136.3 23.5815 136.3 24.5C136.3 25.1963 136.893 25.5444 138.078 25.5444ZM151.28 27.7667C149.31 27.7667 147.65 27.3074 146.302 26.3889L147.569 24.3666C148.561 25.1518 149.895 25.5444 151.569 25.5444C152.369 25.5444 152.991 25.4481 153.435 25.2555C153.88 25.0629 154.102 24.7963 154.102 24.4555C154.102 24.1592 154.028 23.9444 153.88 23.8111C153.732 23.6778 153.45 23.5815 153.035 23.5222L150.88 23.2555C148.939 23.0185 147.969 22.1148 147.969 20.5444C147.969 19.3148 148.421 18.3592 149.324 17.6777C150.228 16.9962 151.51 16.6555 153.169 16.6555C154.813 16.6555 156.295 17.0259 157.613 17.7666L156.613 19.7888C155.532 19.1814 154.295 18.8777 152.902 18.8777C151.406 18.8777 150.658 19.2703 150.658 20.0555C150.658 20.2925 150.732 20.4777 150.88 20.6111C151.043 20.7296 151.317 20.8111 151.702 20.8555L153.88 21.1222C155.806 21.3592 156.769 22.2629 156.769 23.8333C156.769 25.0926 156.295 26.063 155.347 26.7444C154.398 27.4259 153.043 27.7667 151.28 27.7667ZM165.282 27.7667C163.682 27.7667 162.43 27.3815 161.526 26.6111C160.637 25.8407 160.193 24.7666 160.193 23.3889C160.193 22.0851 160.474 20.9296 161.037 19.9222C161.6 18.8999 162.378 18.0999 163.371 17.5222C164.363 16.9444 165.497 16.6555 166.771 16.6555C168.341 16.6555 169.637 17.0555 170.66 17.8555L169.371 19.8555C168.911 19.5592 168.482 19.3518 168.082 19.2333C167.682 19.1148 167.223 19.0555 166.704 19.0555C165.548 19.0555 164.615 19.4407 163.904 20.2111C163.208 20.9814 162.86 21.9963 162.86 23.2555C162.86 24.6629 163.734 25.3667 165.482 25.3667C165.971 25.3667 166.452 25.3 166.926 25.1667C167.4 25.0185 167.941 24.7815 168.548 24.4555L169.46 26.5889C168.067 27.3741 166.674 27.7667 165.282 27.7667ZM177.239 27.7667C175.787 27.7667 174.624 27.3741 173.75 26.5889C172.891 25.7889 172.461 24.7148 172.461 23.3666C172.461 22.0926 172.735 20.9518 173.284 19.9444C173.847 18.937 174.609 18.137 175.572 17.5444C176.535 16.9518 177.617 16.6555 178.817 16.6555C180.269 16.6555 181.424 17.0555 182.284 17.8555C183.143 18.6407 183.573 19.6999 183.573 21.0333C183.573 22.3074 183.291 23.4555 182.728 24.4778C182.18 25.4852 181.424 26.2852 180.461 26.8778C179.513 27.4704 178.439 27.7667 177.239 27.7667ZM177.372 25.3667C178.039 25.3667 178.639 25.1815 179.172 24.8111C179.706 24.4407 180.128 23.937 180.439 23.3C180.75 22.6481 180.906 21.9296 180.906 21.1444C180.906 20.4777 180.713 19.9666 180.328 19.6111C179.943 19.2407 179.387 19.0555 178.661 19.0555C177.995 19.0555 177.395 19.2407 176.861 19.6111C176.328 19.9814 175.906 20.4851 175.595 21.1222C175.284 21.7592 175.128 22.4777 175.128 23.2777C175.128 23.9444 175.321 24.4629 175.706 24.8333C176.091 25.1889 176.647 25.3667 177.372 25.3667ZM185.13 27.5L187.374 16.9221H189.308L189.352 17.7666C190.478 17.0259 191.597 16.6555 192.708 16.6555C193.789 16.6555 194.634 16.9147 195.241 17.4333C195.848 17.937 196.152 18.6777 196.152 19.6555C196.152 20.0259 196.108 20.4259 196.019 20.8555L194.597 27.5H191.974L193.352 21.0555C193.397 20.8481 193.426 20.6703 193.441 20.5222C193.456 20.374 193.463 20.2555 193.463 20.1666C193.463 19.7814 193.337 19.4999 193.085 19.3222C192.848 19.1444 192.448 19.0555 191.885 19.0555C191.397 19.0555 190.952 19.1148 190.552 19.2333C190.152 19.337 189.767 19.4999 189.397 19.7222L187.752 27.5H185.13ZM203.954 27.7667C202.354 27.7667 201.102 27.3815 200.198 26.6111C199.309 25.8407 198.865 24.7666 198.865 23.3889C198.865 22.0851 199.146 20.9296 199.709 19.9222C200.272 18.8999 201.05 18.0999 202.043 17.5222C203.035 16.9444 204.169 16.6555 205.443 16.6555C207.013 16.6555 208.309 17.0555 209.332 17.8555L208.043 19.8555C207.584 19.5592 207.154 19.3518 206.754 19.2333C206.354 19.1148 205.895 19.0555 205.376 19.0555C204.221 19.0555 203.287 19.4407 202.576 20.2111C201.88 20.9814 201.532 21.9963 201.532 23.2555C201.532 24.6629 202.406 25.3667 204.154 25.3667C204.643 25.3667 205.124 25.3 205.598 25.1667C206.072 25.0185 206.613 24.7815 207.221 24.4555L208.132 26.5889C206.739 27.3741 205.347 27.7667 203.954 27.7667ZM216.467 27.7667C214.837 27.7667 213.556 27.3815 212.622 26.6111C211.704 25.8259 211.245 24.737 211.245 23.3444C211.245 22.0851 211.526 20.9518 212.089 19.9444C212.652 18.937 213.415 18.137 214.378 17.5444C215.341 16.9518 216.422 16.6555 217.622 16.6555C219.045 16.6555 220.163 17.0259 220.978 17.7666C221.808 18.4925 222.222 19.4925 222.222 20.7666C222.222 21.137 222.178 21.537 222.089 21.9666C222.015 22.3963 221.911 22.7814 221.778 23.1222H213.822V23.3C213.822 24.7963 214.771 25.5444 216.667 25.5444C217.215 25.5444 217.756 25.4704 218.289 25.3222C218.837 25.1592 219.408 24.9148 220 24.5889L220.845 26.5667C219.348 27.3667 217.889 27.7667 216.467 27.7667ZM214.267 21.1444H219.689V20.9222C219.689 19.5592 218.941 18.8777 217.445 18.8777C216.734 18.8777 216.104 19.0777 215.556 19.4777C215.008 19.8629 214.578 20.4185 214.267 21.1444ZM230.958 27.7667C228.528 27.7667 227.313 26.7667 227.313 24.7666C227.313 24.3815 227.358 23.9815 227.446 23.5666L229.469 14.0999H225.38L225.869 11.7221H232.58L230.113 23.3666C230.069 23.574 230.039 23.7518 230.024 23.9C230.009 24.0481 230.002 24.1666 230.002 24.2555C230.002 24.6555 230.128 24.9444 230.38 25.1222C230.646 25.2852 231.024 25.3667 231.513 25.3667C232.328 25.3667 233.187 25.1222 234.091 24.6333L234.713 26.8333C233.558 27.4556 232.306 27.7667 230.958 27.7667ZM241.693 27.7667C240.241 27.7667 239.078 27.3741 238.204 26.5889C237.345 25.7889 236.915 24.7148 236.915 23.3666C236.915 22.0926 237.189 20.9518 237.737 19.9444C238.3 18.937 239.063 18.137 240.026 17.5444C240.989 16.9518 242.07 16.6555 243.27 16.6555C244.722 16.6555 245.878 17.0555 246.737 17.8555C247.596 18.6407 248.026 19.6999 248.026 21.0333C248.026 22.3074 247.745 23.4555 247.182 24.4778C246.633 25.4852 245.878 26.2852 244.915 26.8778C243.967 27.4704 242.893 27.7667 241.693 27.7667ZM241.826 25.3667C242.493 25.3667 243.093 25.1815 243.626 24.8111C244.159 24.4407 244.582 23.937 244.893 23.3C245.204 22.6481 245.359 21.9296 245.359 21.1444C245.359 20.4777 245.167 19.9666 244.782 19.6111C244.396 19.2407 243.841 19.0555 243.115 19.0555C242.448 19.0555 241.848 19.2407 241.315 19.6111C240.782 19.9814 240.359 20.4851 240.048 21.1222C239.737 21.7592 239.582 22.4777 239.582 23.2777C239.582 23.9444 239.774 24.4629 240.159 24.8333C240.545 25.1889 241.1 25.3667 241.826 25.3667ZM254.406 27.7667C252.435 27.7667 250.776 27.3074 249.428 26.3889L250.695 24.3666C251.687 25.1518 253.02 25.5444 254.695 25.5444C255.495 25.5444 256.117 25.4481 256.561 25.2555C257.006 25.0629 257.228 24.7963 257.228 24.4555C257.228 24.1592 257.154 23.9444 257.006 23.8111C256.858 23.6778 256.576 23.5815 256.161 23.5222L254.006 23.2555C252.065 23.0185 251.095 22.1148 251.095 20.5444C251.095 19.3148 251.546 18.3592 252.45 17.6777C253.354 16.9962 254.635 16.6555 256.295 16.6555C257.939 16.6555 259.42 17.0259 260.739 17.7666L259.739 19.7888C258.658 19.1814 257.42 18.8777 256.028 18.8777C254.532 18.8777 253.783 19.2703 253.783 20.0555C253.783 20.2925 253.857 20.4777 254.006 20.6111C254.169 20.7296 254.443 20.8111 254.828 20.8555L257.006 21.1222C258.932 21.3592 259.895 22.2629 259.895 23.8333C259.895 25.0926 259.42 26.063 258.472 26.7444C257.524 27.4259 256.169 27.7667 254.406 27.7667Z" fill="white"/>
</svg>
